HIERARCHY
ROOT Hips
{
 OFFSET 0.000000 0.000000 0.000000
 CHANNELS 6 Xposition Yposition Zposition Yrotation Xrotation Zrotation
 JOINT Chest
 {
  OFFSET 0.000000 9.585900 0.002600
  CHANNELS 3 Yrotation Xrotation Zrotation
  JOINT Chest2
  {
   OFFSET 0.000000 9.601200 -0.005300
   CHANNELS 3 Yrotation Xrotation Zrotation
   JOINT Chest3
   {
    OFFSET 0.000000 9.561800 0.000000
    CHANNELS 3 Yrotation Xrotation Zrotation
    JOINT Chest4
    {
     OFFSET 0.000000 9.552100 0.000000
     CHANNELS 3 Yrotation Xrotation Zrotation
     JOINT Neck
     {
      OFFSET 0.000000 14.453000 0.000000
      CHANNELS 3 Yrotation Xrotation Zrotation
      JOINT Head
      {
       OFFSET 0.000000 8.936500 -0.011300
       CHANNELS 3 Yrotation Xrotation Zrotation
       End Site
       {
        OFFSET 0.000000 17.073600 -0.006000
       }
      }
     }
     JOINT RightCollar
     {
      OFFSET -2.921100 9.558500 0.000000
      CHANNELS 3 Yrotation Xrotation Zrotation
      JOINT RightShoulder
      {
       OFFSET -13.519700 0.000000 0.000000
       CHANNELS 3 Yrotation Xrotation Zrotation
       JOINT RightElbow
       {
        OFFSET 0.000000 -29.696600 0.000000
        CHANNELS 3 Yrotation Xrotation Zrotation
        JOINT RightWrist
        {
         OFFSET 0.000000 -24.004700 0.000000
         CHANNELS 3 Yrotation Xrotation Zrotation
         End Site
         {
          OFFSET 0.000000 -17.728500 0.000000
         }
        }
       }
      }
     }
     JOINT LeftCollar
     {
      OFFSET 2.921100 9.558500 0.000000
      CHANNELS 3 Yrotation Xrotation Zrotation
      JOINT LeftShoulder
      {
       OFFSET 13.519700 0.000000 0.000000
       CHANNELS 3 Yrotation Xrotation Zrotation
       JOINT LeftElbow
       {
        OFFSET 0.000000 -29.696600 0.000000
        CHANNELS 3 Yrotation Xrotation Zrotation
        JOINT LeftWrist
        {
         OFFSET 0.000000 -24.004700 0.000000
         CHANNELS 3 Yrotation Xrotation Zrotation
         End Site
         {
          OFFSET 0.000000 -17.728500 0.000000
         }
        }
       }
      }
     }
    }
   }
  }
 }
 JOINT RightHip
 {
  OFFSET -7.771700 -0.012900 -0.001300
  CHANNELS 3 Yrotation Xrotation Zrotation
  JOINT RightKnee
  {
   OFFSET 0.000000 -40.869800 0.001200
   CHANNELS 3 Yrotation Xrotation Zrotation
   JOINT RightAnkle
   {
    OFFSET 0.000000 -39.717900 0.002100
    CHANNELS 3 Yrotation Xrotation Zrotation
    JOINT RightToe
    {
     OFFSET 0.000000 -4.965400 11.033500
     CHANNELS 3 Yrotation Xrotation Zrotation
     End Site
     {
      OFFSET 0.000000 -1.423100 5.872300
     }
    }
   }
  }
 }
 JOINT LeftHip
 {
  OFFSET 7.771700 -0.012900 -0.001300
  CHANNELS 3 Yrotation Xrotation Zrotation
  JOINT LeftKnee
  {
   OFFSET 0.000000 -40.869800 0.001200
   CHANNELS 3 Yrotation Xrotation Zrotation
   JOINT LeftAnkle
   {
    OFFSET 0.000000 -39.717900 0.002100
    CHANNELS 3 Yrotation Xrotation Zrotation
    JOINT LeftToe
    {
     OFFSET 0.000000 -4.965400 11.033500
     CHANNELS 3 Yrotation Xrotation Zrotation
     End Site
     {
      OFFSET 0.000000 -1.423100 5.872300
     }
    }
   }
  }
 }
}
MOTION
Frames: 13
Frame Time: 0.008333
0.000000 85.388000 0.000000 0.000000 -5.767877 0.000000 0.000000 11.653817 0.000000 0.000000 -5.885947 0.000000 0.000000 -0.000000 0.000000 0.000000 -0.000000 0.000000 0.000000 12.528835 0.000000 0.000000 0.711642 0.000000 0.000000 -0.000000 0.000000 0.000000 0.000000 -90.000000 0.000000 -2.309062 0.000000 0.000000 2.309062 0.000000 0.000000 -0.000000 0.000000 0.000000 -0.000000 90.000000 0.000000 -2.309062 0.000000 0.000000 2.309062 0.000000 0.000000 8.520406 0.000000 0.000000 1.905762 0.000000 -0.000000 -4.658285 0.000000 0.000000 -0.000000 0.000000 0.000000 8.520406 0.000000 0.000000 1.905762 0.000000 -0.000000 -4.658285 0.000000 0.000000 -0.000000 0.000000
-28.535896 51.985523 27.211901 179.105428 -34.641950 0.459444 1.321276 25.082080 0.487897 0.161044 3.981276 0.104377 0.268824 6.374812 0.178642 0.977378 20.793849 0.713593 -2.528163 14.158324 -4.394270 -1.684920 -10.790625 -4.082946 10.461119 11.477274 14.410621 28.720966 -12.572463 -43.171152 135.801440 -51.328290 -178.948208 -1.456370 1.239290 -8.625524 -10.440974 11.563649 -17.545849 -29.447930 -6.748623 39.204152 -179.058805 -56.661260 -136.083124 20.266278 8.584739 9.370661 -8.224768 -47.983067 -0.764560 -55.486198 80.767486 -63.904381 -3.645089 -4.827698 5.983365 0.161935 -0.515891 0.064838 3.751463 -45.951421 -3.062563 32.656289 83.021779 37.339113 -1.868915 -9.111102 -1.154209 0.117664 0.406683 0.057151
-28.536816 51.985252 27.210939 179.101104 -34.642535 0.467280 1.316056 25.077202 0.473133 0.164249 3.983252 0.107026 0.270019 6.376969 0.181085 0.973223 20.790206 0.710028 -2.519094 14.162262 -4.392378 -1.664337 -10.794254 -4.090812 10.458812 11.489879 14.411346 28.717785 -12.580497 -43.154846 135.784207 -51.314850 -178.927988 -1.437024 1.247317 -8.656410 -10.435475 11.575000 -17.546952 -29.446753 -6.754578 39.201575 -179.033818 -56.647045 -136.112334 20.260307 8.586624 9.363140 -8.216975 -47.985556 -0.767272 -55.505198 80.774852 -63.927472 -3.658615 -4.841444 5.991826 0.169004 -0.511749 0.062294 3.769261 -45.950008 -3.076852 32.672343 83.022385 37.359559 -1.866673 -9.110720 -1.151070 0.114746 0.404581 0.053787
-28.537726 51.984406 27.210554 179.097558 -34.638143 0.475074 1.312556 25.069286 0.462594 0.163897 3.983002 0.106836 0.271561 6.375903 0.179676 0.973277 20.792516 0.711140 -2.514533 14.160377 -4.393993 -1.655692 -10.792316 -4.092214 10.458121 11.493337 14.414040 28.704235 -12.588423 -43.135749 135.760857 -51.300955 -178.912607 -1.435270 1.251093 -8.653800 -10.430441 11.580648 -17.546998 -29.446286 -6.757199 39.198268 -179.017889 -56.635154 -136.131889 20.253470 8.583535 9.357085 -8.209550 -47.993274 -0.772457 -55.546235 80.773289 -63.971105 -3.652611 -4.857421 6.003145 0.166995 -0.501051 0.053853 3.793738 -45.953281 -3.099616 32.691452 83.020344 37.391137 -1.863042 -9.111916 -1.154748 0.110615 0.404760 0.054111
-28.540078 51.984880 27.208077 179.103239 -34.648494 0.487193 1.297634 25.076361 0.445129 0.163171 3.983791 0.106293 0.267183 6.372724 0.176030 0.977812 20.796243 0.711175 -2.510269 14.159003 -4.395311 -1.646586 -10.791436 -4.094102 10.459536 11.496770 14.419749 28.691863 -12.595254 -43.121335 135.756846 -51.288372 -178.897414 -1.420790 1.254624 -8.668350 -10.422881 11.586709 -17.546045 -29.469178 -6.758102 39.191796 -178.983847 -56.641715 -136.154305 20.254929 8.562166 9.362683 -8.198150 -47.985911 -0.789432 -55.589450 80.765010 -64.017593 -3.674801 -4.825706 5.995814 0.199981 -0.541748 0.069828 3.807758 -45.942616 -3.122708 32.694756 83.025134 37.396635 -1.877258 -9.134683 -1.161003 0.126259 0.423797 0.062887
-28.536277 51.984451 27.206798 179.091178 -34.650507 0.473408 1.317050 25.074413 0.468732 0.162111 3.986471 0.106043 0.265992 6.371836 0.176671 0.973472 20.790979 0.711833 -2.500271 14.160474 -4.399953 -1.644225 -10.788525 -4.097728 10.460044 11.508368 14.418899 28.652767 -12.617187 -43.085843 135.754441 -51.262417 -178.872523 -1.423355 1.256999 -8.671167 -10.415312 11.599175 -17.553570 -29.478369 -6.761857 39.195111 -178.969021 -56.634809 -136.162312 20.255383 8.556638 9.373103 -8.211916 -47.980332 -0.756922 -55.599717 80.762127 -64.028626 -3.650228 -4.862169 6.006833 0.166833 -0.521981 0.063348 3.799927 -45.942115 -3.096197 32.716656 83.029568 37.424364 -1.857101 -9.118725 -1.162752 0.108028 0.402815 0.056732
-28.536033 51.983641 27.206006 179.091984 -34.649122 0.474376 1.315548 25.070019 0.465533 0.164109 3.986292 0.109256 0.264251 6.368707 0.174570 0.969491 20.794247 0.711235 -2.495788 14.162710 -4.400634 -1.641949 -10.789053 -4.099474 10.456766 11.519267 14.419547 28.645889 -12.631655 -43.073710 135.734568 -51.261158 -178.868089 -1.425368 1.258224 -8.670715 -10.404642 11.606827 -17.558748 -29.489702 -6.761070 39.199899 -178.949611 -56.619351 -136.168815 20.254076 8.565124 9.381997 -8.211027 -47.981835 -0.757703 -55.612658 80.752959 -64.040769 -3.642764 -4.857867 6.005309 0.164667 -0.526735 0.065900 3.802583 -45.943657 -3.099789 32.721884 83.030224 37.431545 -1.856153 -9.120091 -1.163729 0.105774 0.403003 0.055056
-28.534863 51.983546 27.204164 179.099080 -34.656130 0.466926 1.309999 25.075663 0.467057 0.164869 3.983311 0.108508 0.260616 6.371047 0.175124 0.966648 20.794098 0.711125 -2.488482 14.161773 -4.403268 -1.640116 -10.787182 -4.100138 10.458135 11.529385 14.419822 28.640237 -12.643743 -43.062715 135.713377 -51.276238 -178.882960 -1.428917 1.247920 -8.660579 -10.394393 11.612213 -17.559867 -29.497495 -6.765424 39.194728 -178.937254 -56.621902 -136.181228 20.257879 8.558594 9.395075 -8.217457 -47.975105 -0.753923 -55.662571 80.741405 -64.086512 -3.633355 -4.848008 5.996969 0.166601 -0.538493 0.072749 3.795370 -45.937024 -3.094486 32.732535 83.032850 37.442647 -1.852543 -9.124645 -1.163274 0.103749 0.404682 0.052748
-28.532873 51.983058 27.202865 179.101786 -34.660191 0.457243 1.310946 25.079426 0.475306 0.162376 3.982832 0.106754 0.257170 6.369934 0.174317 0.966311 20.794604 0.712438 -2.488687 14.158579 -4.408985 -1.631482 -10.786373 -4.103741 10.451629 11.535817 14.417278 28.647390 -12.647561 -43.056623 135.700923 -51.281247 -178.890635 -1.429051 1.255204 -8.676743 -10.385168 11.614684 -17.564708 -29.516834 -6.773092 39.190139 -178.920737 -56.635322 -136.188621 20.255331 8.558308 9.399782 -8.224727 -47.970785 -0.743561 -55.690767 80.738668 -64.110136 -3.627475 -4.844157 5.990650 0.164362 -0.544298 0.076774 3.782032 -45.934387 -3.076704 32.725198 83.037474 37.436225 -1.860940 -9.130595 -1.166501 0.112546 0.407468 0.054309
-28.531929 51.982347 27.201947 179.101557 -34.662674 0.455248 1.305500 25.080916 0.472441 0.161739 3.982721 0.106922 0.261536 6.370312 0.174737 0.963695 20.794096 0.708701 -2.483912 14.159374 -4.406451 -1.629527 -10.791241 -4.115776 10.443766 11.546540 14.422975 28.655869 -12.655048 -43.055153 135.691656 -51.286294 -178.899276 -1.428839 1.261749 -8.692796 -10.378859 11.618090 -17.561368 -29.519813 -6.777411 39.189298 -178.915296 -56.635637 -136.184826 20.257122 8.570412 9.404909 -8.224483 -47.968640 -0.741358 -55.716908 80.733937 -64.133752 -3.620204 -4.844655 5.986305 0.167832 -0.543269 0.079700 3.783313 -45.931140 -3.073390 32.720089 83.038062 37.433593 -1.864164 -9.135443 -1.166914 0.112044 0.410474 0.053696
-28.531778 51.981672 27.201050 179.099348 -34.666583 0.458596 1.304104 25.083846 0.465999 0.161472 3.982206 0.105717 0.263305 6.370978 0.177065 0.960741 20.794939 0.702609 -2.480671 14.157068 -4.404912 -1.631371 -10.789452 -4.113950 10.444358 11.551064 14.433140 28.646120 -12.667338 -43.044053 135.691682 -51.286314 -178.905202 -1.427404 1.269653 -8.707813 -10.372980 11.620237 -17.554438 -29.521625 -6.780957 39.188495 -178.916925 -56.639663 -136.185538 20.261767 8.575355 9.418666 -8.216834 -47.966097 -0.746373 -55.713439 80.741261 -64.130689 -3.621714 -4.849293 5.988888 0.158255 -0.537806 0.075756 3.788316 -45.925895 -3.074445 32.713360 83.038674 37.426668 -1.867135 -9.140275 -1.166191 0.114592 0.413976 0.053657
-28.533706 51.981576 27.199519 179.104242 -34.676945 0.469728 1.293495 25.094063 0.450502 0.161302 3.982607 0.105897 0.262777 6.371399 0.174505 0.960385 20.795399 0.702069 -2.489747 14.157235 -4.410303 -1.629385 -10.790627 -4.109548 10.441309 11.556883 14.437823 28.630496 -12.679808 -43.030589 135.705610 -51.275997 -178.908931 -1.423041 1.285724 -8.735975 -10.376615 11.621819 -17.554099 -29.518835 -6.789950 39.185357 -178.915010 -56.640497 -136.182328 20.259669 8.583418 9.422902 -8.204745 -47.961538 -0.767386 -55.742244 80.753375 -64.167139 -3.622487 -4.856090 5.997134 0.150207 -0.537456 0.072723 3.799306 -45.912639 -3.094339 32.734063 83.034716 37.449406 -1.879588 -9.140554 -1.168188 0.123033 0.414368 0.055709
-28.535556 51.980167 27.200140 179.101675 -34.673747 0.483777 1.292184 25.090037 0.437128 0.158990 3.983694 0.106425 0.261700 6.372206 0.173507 0.959288 20.795672 0.700191 -2.490333 14.156488 -4.409854 -1.634825 -10.791362 -4.110888 10.439012 11.561922 14.436744 28.610539 -12.698355 -43.018099 135.727754 -51.270601 -178.918192 -1.415970 1.302186 -8.763561 -10.378339 11.625151 -17.566576 -29.516139 -6.795436 39.190711 -178.906856 -56.644470 -136.195643 20.263506 8.588281 9.434267 -8.187594 -47.973721 -0.787577 -55.754941 80.765997 -64.182936 -3.620636 -4.856326 6.002397 0.140222 -0.538572 0.069562 3.815176 -45.914857 -3.115921 32.738020 83.032655 37.453642 -1.875367 -9.138272 -1.167418 0.119538 0.413858 0.054315
